# xmcd CD database file
#
# Track frame offsets:
#	150
#	19453
#	39438
#	57192
#	76212
#	142120
#	172694
#	196024
#	227599
#	248732
#
# Disc length: 3559 seconds
#
# Revision: 1
# Processed by: cddbd v1.5.2PL0 Copyright (c) Steve Scherf et al.
# Submitted via: CDex 1.51
#
DISCID=750de50a
DTITLE=Nick Cave and the bad seeds - Murder Ballads
DYEAR=1900
DGENRE=New Age
TTITLE0=Crow Jane
TTITLE1=Death is not the end
TTITLE2=Henry Lee
TTITLE3=Lovely creature
TTITLE4=O'Malley's Bar
TTITLE5=Song of Joy
TTITLE6=Stagger Lee
TTITLE7=The curse of milhaven
TTITLE8=The Kindnes of strangers
TTITLE9=Where the wild roses grow
EXTD=
EXTT0=
EXTT1=
EXTT2=
EXTT3=
EXTT4=
EXTT5=
EXTT6=
EXTT7=
EXTT8=
EXTT9=
PLAYORDER=
